<svg width="80" height="80" viewBox="0 0 80 80" fill="none" xmlns="http://www.w3.org/2000/svg">
<path d="M73.3333 40H53.3333L46.6666 50H33.3333L26.6666 40H6.66663M73.3333 40V60C73.3333 61.7681 72.6309 63.4638 71.3807 64.714C70.1304 65.9643 68.4347 66.6666 66.6666 66.6666H13.3333C11.5652 66.6666 9.86949 65.9643 8.61925 64.714C7.369 63.4638 6.66663 61.7681 6.66663 60V40M73.3333 40L61.8333 17.0333C61.2814 15.9226 60.4305 14.9879 59.3765 14.3342C58.3224 13.6806 57.1069 13.334 55.8666 13.3333H24.1333C22.893 13.334 21.6775 13.6806 20.6234 14.3342C19.5694 14.9879 18.7186 15.9226 18.1666 17.0333L6.66663 40" stroke="#CDCFD0" stroke-width="1.5" stroke-linecap="round" stroke-linejoin="round"/>
</svg>
